REM DIRINDEX 1\5,1\2\6,1\2\7,1\3\8,1\3\9,1\4\10,1\4\11,1\4\12
REM DIRNAME cjc026,folder01,folder02,folder03,folder04,folder05,folder06,folder07,folder08,folder09,folder10,folder11
TITLE ""
FILE "EJE_DB3000_5th_1A_15.mp3" MP3
  TRACK 01 AUDIO
    TITLE "0:"
    INDEX 01 00:00:00
  TRACK 02 AUDIO
    TITLE "10:cjc026_07254"
    INDEX 01 00:00:08
  TRACK 03 AUDIO
    TITLE "0:"
    INDEX 01 00:01:24
  TRACK 04 AUDIO
    TITLE "11:cjc026_07255"
    INDEX 01 00:01:60
  TRACK 05 AUDIO
    TITLE "0:"
    INDEX 01 00:03:15
  TRACK 06 AUDIO
    TITLE "12:cjc026_07256"
    INDEX 01 00:03:50
  TRACK 07 AUDIO
    TITLE "0:"
    INDEX 01 00:04:69
  TRACK 08 AUDIO
    TITLE "10:cjc026_07257"
    INDEX 01 00:05:27
  TRACK 09 AUDIO
    TITLE "0:"
    INDEX 01 00:06:60
  TRACK 10 AUDIO
    TITLE "11:cjc026_07258"
    INDEX 01 00:07:20
  TRACK 11 AUDIO
    TITLE "0:"
    INDEX 01 00:08:61
  TRACK 12 AUDIO
    TITLE "12:cjc026_07259"
    INDEX 01 00:09:21
  TRACK 13 AUDIO
    TITLE "0:"
    INDEX 01 00:10:51
  TRACK 14 AUDIO
    TITLE "10:cjc026_07260"
    INDEX 01 00:11:12
  TRACK 15 AUDIO
    TITLE "0:"
    INDEX 01 00:12:28
  TRACK 16 AUDIO
    TITLE "11:cjc026_07261"
    INDEX 01 00:12:63
  TRACK 17 AUDIO
    TITLE "0:"
    INDEX 01 00:14:24
  TRACK 18 AUDIO
    TITLE "12:cjc026_07262"
    INDEX 01 00:14:57
  TRACK 19 AUDIO
    TITLE "0:"
    INDEX 01 00:15:73
  TRACK 20 AUDIO
    TITLE "10:cjc026_07263"
    INDEX 01 00:16:33
  TRACK 21 AUDIO
    TITLE "0:"
    INDEX 01 00:17:53
  TRACK 22 AUDIO
    TITLE "11:cjc026_07264"
    INDEX 01 00:18:13
  TRACK 23 AUDIO
    TITLE "0:"
    INDEX 01 00:19:49
  TRACK 24 AUDIO
    TITLE "12:cjc026_07265"
    INDEX 01 00:20:09
  TRACK 25 AUDIO
    TITLE "0:"
    INDEX 01 00:21:26
  TRACK 26 AUDIO
    TITLE "10:cjc026_07266"
    INDEX 01 00:21:63
  TRACK 27 AUDIO
    TITLE "0:"
    INDEX 01 00:23:11
  TRACK 28 AUDIO
    TITLE "11:cjc026_07267"
    INDEX 01 00:23:43
  TRACK 29 AUDIO
    TITLE "0:"
    INDEX 01 00:25:23
  TRACK 30 AUDIO
    TITLE "12:cjc026_07268"
    INDEX 01 00:25:58
  TRACK 31 AUDIO
    TITLE "0:"
    INDEX 01 00:27:05
  TRACK 32 AUDIO
    TITLE "10:cjc026_07269"
    INDEX 01 00:27:40
  TRACK 33 AUDIO
    TITLE "0:"
    INDEX 01 00:28:62
  TRACK 34 AUDIO
    TITLE "11:cjc026_07270"
    INDEX 01 00:29:22
  TRACK 35 AUDIO
    TITLE "0:"
    INDEX 01 00:30:72
  TRACK 36 AUDIO
    TITLE "12:cjc026_07271"
    INDEX 01 00:31:34
  TRACK 37 AUDIO
    TITLE "0:"
    INDEX 01 00:32:54
  TRACK 38 AUDIO
    TITLE "10:cjc026_07272"
    INDEX 01 00:33:14
  TRACK 39 AUDIO
    TITLE "0:"
    INDEX 01 00:34:33
  TRACK 40 AUDIO
    TITLE "11:cjc026_07273"
    INDEX 01 00:34:71
  TRACK 41 AUDIO
    TITLE "0:"
    INDEX 01 00:36:27
  TRACK 42 AUDIO
    TITLE "12:cjc026_07274"
    INDEX 01 00:36:64
  TRACK 43 AUDIO
    TITLE "0:"
    INDEX 01 00:38:06
  TRACK 44 AUDIO
    TITLE "10:cjc026_07275"
    INDEX 01 00:38:44
  TRACK 45 AUDIO
    TITLE "0:"
    INDEX 01 00:39:66
  TRACK 46 AUDIO
    TITLE "11:cjc026_07276"
    INDEX 01 00:40:26
  TRACK 47 AUDIO
    TITLE "0:"
    INDEX 01 00:41:67
  TRACK 48 AUDIO
    TITLE "12:cjc026_07277"
    INDEX 01 00:42:27
  TRACK 49 AUDIO
    TITLE "0:"
    INDEX 01 00:43:50
  TRACK 50 AUDIO
    TITLE "10:cjc026_07278"
    INDEX 01 00:44:10
  TRACK 51 AUDIO
    TITLE "0:"
    INDEX 01 00:45:27
  TRACK 52 AUDIO
    TITLE "11:cjc026_07279"
    INDEX 01 00:45:64
  TRACK 53 AUDIO
    TITLE "0:"
    INDEX 01 00:47:30
  TRACK 54 AUDIO
    TITLE "12:cjc026_07280"
    INDEX 01 00:47:68
  TRACK 55 AUDIO
    TITLE "0:"
    INDEX 01 00:49:07
  TRACK 56 AUDIO
    TITLE "10:cjc026_07281"
    INDEX 01 00:49:45
  TRACK 57 AUDIO
    TITLE "0:"
    INDEX 01 00:50:62
  TRACK 58 AUDIO
    TITLE "11:cjc026_07282"
    INDEX 01 00:51:22
  TRACK 59 AUDIO
    TITLE "0:"
    INDEX 01 00:52:74
  TRACK 60 AUDIO
    TITLE "12:cjc026_07283"
    INDEX 01 00:53:37
  TRACK 61 AUDIO
    TITLE "0:"
    INDEX 01 00:54:54
  TRACK 62 AUDIO
    TITLE "10:cjc026_07284"
    INDEX 01 00:55:14
  TRACK 63 AUDIO
    TITLE "0:"
    INDEX 01 00:56:36
  TRACK 64 AUDIO
    TITLE "11:cjc026_07285"
    INDEX 01 00:56:74
  TRACK 65 AUDIO
    TITLE "0:"
    INDEX 01 00:58:21
  TRACK 66 AUDIO
    TITLE "12:cjc026_07286"
    INDEX 01 00:58:56
  TRACK 67 AUDIO
    TITLE "0:"
    INDEX 01 01:00:03
  TRACK 68 AUDIO
    TITLE "10:cjc026_07287"
    INDEX 01 01:00:38
  TRACK 69 AUDIO
    TITLE "0:"
    INDEX 01 01:01:55
  TRACK 70 AUDIO
    TITLE "11:cjc026_07288"
    INDEX 01 01:02:15
  TRACK 71 AUDIO
    TITLE "0:"
    INDEX 01 01:03:35
  TRACK 72 AUDIO
    TITLE "12:cjc026_07289"
    INDEX 01 01:03:70
  TRACK 73 AUDIO
    TITLE "0:"
    INDEX 01 01:05:12
